<?xml version="1.0" encoding="utf-8"?><svg version="1.1" id="Layer_1" xmlns="http://www.w3.org/2000/svg" xmlns:xlink="http://www.w3.org/1999/xlink" x="0px" y="0px" viewBox="0 0 122.88 120.92" style="enable-background:new 0 0 122.88 120.92" xml:space="preserve"><style type="text/css">.st0{fill-rule:evenodd;clip-rule:evenodd;}</style><g><path class="st0" d="M79.98,94.86l3.23-3.23c0.1-0.1,0.26-0.1,0.36,0l0.78,0.78l5.78-4.13c-0.4-4.24,4.07-7.31,8.1-5.66l5.96-4.2 l0.89,1.09l-4.33,5.9c0.67,1.19,0.83,2.55,0.58,3.82l14.85,14.73c1.51-3.05,2.37-6.48,2.37-10.11c0-6.28-2.55-11.97-6.66-16.09 c-4.12-4.12-9.81-6.66-16.09-6.66c-6.28,0-11.97,2.55-16.09,6.66c-4.12,4.12-6.66,9.81-6.66,16.09s2.55,11.97,6.66,16.09 c4.12,4.12,9.81,6.66,16.09,6.66c6.28,0,11.97-2.55,16.09-6.66c0.22-0.22,0.44-0.45,0.66-0.68L96.86,93.7 c-0.54,0.09-1.12,0.09-1.73,0.01l-3.92,5.57l1.11,1.11c0.1,0.1,0.1,0.26,0,0.36l-3.23,3.23c-0.1,0.1-0.26,0.1-0.36,0l-8.76-8.76 C79.88,95.12,79.88,94.96,79.98,94.86L79.98,94.86z M86.25,23.86l-0.03,0.09c-6.47-1.21-15.81-1.84-25.66-1.72 c-9.96,0.11-20.49,0.98-29.17,2.76l-0.01-0.04C23.81-10.65,96.24-5.56,86.25,23.86L86.25,23.86z M44.15,62.42 c-4.4,3.08-8.99,4.22-13.47,5.05l6.41,18.16h32.89c-0.82,2.59-1.27,5.35-1.27,8.21c0,7.48,3.03,14.25,7.93,19.15 c4.9,4.9,11.67,7.93,19.15,7.93c7.48,0,14.25-3.03,19.15-7.93c0.41-0.41,0.8-0.82,1.18-1.26c4.38-4.52,6.76-11.71,6.76-17.9 c0-7.48-3.03-14.25-7.93-19.15c-4.9-4.9-11.67-7.93-19.15-7.93c-2.32,0-4.57,0.29-6.72,0.84c-3.97-0.4-8.09-0.72-11.02-2.24 c-1.34-0.83-2.51-1.99-3.59-3.46l-0.19-3c1.04-0.85,2.04-1.85,2.89-2.96c1.93-2.41,2.67-4.89,3.59-8.04c0.19-0.67,0.37-1.33,0.59-2 c1.82-0.19,3.41-2.22,4.37-4.74c0.52-1.41,0.93-3,1.04-4.41c0.15-1.48,0-2.85-0.52-3.78c-0.41-0.74-1.04-1.22-1.89-1.3 c-0.06-0.74,0.27-2.31,0.72-3.98c-6.13-1.1-15.03-1.67-24.5-1.56c-9.72,0.11-19.99,0.95-28.4,2.69l0.82,3.93 c-0.63,1.04-0.78,2.67-0.59,4.41c0.19,1.7,0.7,3.48,1.45,4.97c0.96,1.89,2.33,3.22,3.93,3.22c0.15,0.44,0.33,0.93,0.48,1.41 c1.3,3.82,2.26,6.71,4.59,9.45c0.67,0.82,1.41,1.56,2.19,2.22l-0.19,3.37C44.63,62,44.39,62.21,44.15,62.42L44.15,62.42z M71.94,60.07c-4.18,2.79-6.73,4.32-12.14,4.19c-5.26-0.08-8.01-1.86-12.22-4.52C47.26,77.31,72.37,78.36,71.94,60.07L71.94,60.07z M78.21,47.33c0.22-0.78,0.48-1.59,0.78-2.56c0.11-0.41,0.52-0.7,0.93-0.63c1.22,0.22,2.45-1.56,3.3-3.71 c0.48-1.3,0.85-2.7,0.96-3.96c0.11-1.19,0-2.22-0.33-2.85c-0.33-0.61-1.25-0.26-1.93-0.85c-3.51,9.31-34.11,13.52-46.63,0.7 c-0.44,0.7-0.52,1.96-0.37,3.37c0.19,1.48,0.63,3.11,1.3,4.41c0.78,1.52,1.78,2.56,2.78,2.3c0.41-0.11,0.85,0.11,1,0.52 c0.3,0.82,0.48,1.45,0.7,2.07C47.18,65.2,71.84,66.69,78.21,47.33L78.21,47.33z M28.14,91.38c1.45,0,2.63,1.18,2.63,2.63 c0,1.45-1.18,2.63-2.63,2.63c-1.45,0-2.63-1.18-2.63-2.63C25.52,92.56,26.69,91.38,28.14,91.38L28.14,91.38z M23.25,68.84 C14.98,70.72,7.71,74.8,3.63,92.75L0,106.64h19.67V89.45c0-2.11,1.72-3.83,3.83-3.83h4.09C27.42,78.97,24.1,71.99,23.25,68.84 L23.25,68.84z"/></g></svg>